<svg xmlns="http://www.w3.org/2000/svg" xmlns:xlink="http://www.w3.org/1999/xlink" id="mnemonic" x="0" y="0" enable-background="new 0 0 240 234" version="1.1" viewBox="0 0 240 234" xml:space="preserve"><radialGradient id="tile_1_" cx="93.66" cy="-18" r="383.64" gradientUnits="userSpaceOnUse"><stop offset="0" style="stop-color:#ec202b"/><stop offset=".146" style="stop-color:#e2202a"/><stop offset=".399" style="stop-color:#c51e26"/><stop offset=".727" style="stop-color:#981c20"/><stop offset="1" style="stop-color:#6d1a1b"/></radialGradient><rect id="tile" width="240" height="234" x="0" y="0" fill="url(#tile_1_)" fill-rule="evenodd" clip-rule="evenodd"/><g><g><linearGradient id="SVGID_1_" x1="119.7" x2="119.7" y1="41.151" y2="190.851" gradientUnits="userSpaceOnUse"><stop offset=".14" style="stop-color:#fff"/><stop offset="1" style="stop-color:#eaecea"/></linearGradient><path fill="url(#SVGID_1_)" d="M206,117.5c0-42-30.2-76.3-67.4-76.3c-36.3,0-66,32.6-67.4,73.3l-37.8,0c0,42,30.2,76.4,67.4,76.4 c36.3,0,66-32.7,67.4-73.4L206,117.5z M124.1,117.5c-5.2,12.3-18.8,37.7-42.4,37.7c-20.8,0-34.9-15.1-35.7-37.7H124.1z M100.8,187.9c-27,0-50.2-19-59.8-45.9c7.7,15,22.4,24.2,40.7,24.2c22.5,0,42.8-18.2,54.2-48.6c0,0,0-0.1,0-0.1h29.3 C163.9,156.6,135.5,187.9,100.8,187.9z M137.1,114.5c7.7-19.3,16.1-26.9,29.4-26.9c14.3,0,25.6,11.7,26.3,26.9H137.1z M166.5,76.6 c-23.8,0-34,18.8-40.9,37.2c-0.1,0.2-0.2,0.5-0.3,0.7H74.2c1.3-39,29.7-70.3,64.4-70.3c31,0,56.9,24.9,63,58 C196.4,87.1,182.8,76.6,166.5,76.6z"/></g></g></svg>