<svg xmlns="http://www.w3.org/2000/svg" xmlns:xlink="http://www.w3.org/1999/xlink" id="mnemonic" x="0" y="0" version="1.1" viewBox="0 0 240 234" xml:space="preserve" style="enable-background:new 0 0 240 234"><g><rect style="fill-rule:evenodd;clip-rule:evenodd;fill:#26003b" width="220" height="214" x="10" y="10"/></g><g><path style="fill-rule:evenodd;clip-rule:evenodd;fill:#da91ff" d="M0,0V234h240.001V0H0z M10,10h220.001V224H10V10z"/></g><g><path style="fill:#da91ff" d="M115.073,160.699c0,0.99-0.33,1.485-1.155,1.815c-4.29,1.816-11.221,2.476-18.318,2.476 c-25.743,0-48.516-16.832-48.516-56.437c0-33.994,20.133-56.767,50.826-56.767c8.086,0,14.027,0.825,17.162,2.31 c0.825,0.33,0.99,0.825,0.99,1.815v14.192c0,1.32-0.66,1.32-1.155,1.155c-3.96-1.981-9.901-3.136-16.832-3.136 c-19.307,0-32.179,14.687-32.179,39.935c0,31.189,17.657,40.43,32.179,40.43c6.601,0,11.056-0.495,15.842-2.145 c0.66-0.33,1.155-0.33,1.155,0.825V160.699z"/><path style="fill:#da91ff" d="M148.241,162.349c0,0.825-0.33,1.155-0.99,1.155h-15.842c-0.825,0-1.155-0.495-1.155-1.155V54.426 c0-0.66,0.165-0.99,1.155-0.99h15.842c0.66,0,0.99,0.33,0.99,0.99v32.839c5.115-3.96,11.386-6.436,19.307-6.436 c10.726,0,23.928,5.445,23.928,29.539v51.816c0,0.99-0.329,1.32-1.154,1.32h-15.677c-0.825,0-1.155-0.495-1.155-1.32v-50.001 c0-9.901-4.125-15.347-12.047-15.347c-5.115,0-9.571,1.65-13.201,4.95V162.349z"/></g></svg>