<svg xmlns="http://www.w3.org/2000/svg" xmlns:xlink="http://www.w3.org/1999/xlink" id="mnemonic" x="0" y="0" enable-background="new 0 0 240 234" version="1.1" viewBox="0 0 240 234" xml:space="preserve"><radialGradient id="tile_1_" cx="93.664" cy="-18" r="383.64" gradientUnits="userSpaceOnUse"><stop offset="0" style="stop-color:#ec202b"/><stop offset=".146" style="stop-color:#e2202a"/><stop offset=".399" style="stop-color:#c51e26"/><stop offset=".727" style="stop-color:#981c20"/><stop offset="1" style="stop-color:#6d1a1b"/></radialGradient><rect id="tile_10_" width="240" height="234" x="0" y="0" fill="url(#tile_1_)" fill-rule="evenodd" clip-rule="evenodd"/><g><linearGradient id="SVGID_1_" x1="120" x2="120" y1="36.392" y2="197.827" gradientUnits="userSpaceOnUse"><stop offset=".14" style="stop-color:#fff"/><stop offset="1" style="stop-color:#eaecea"/></linearGradient><path fill="url(#SVGID_1_)" d="M198.2,144.8l-26.4-19.5L197,90l-2.4-1.7l0,0l-65-45.2l-9.6-6.7v0l0,0l0,0v0l-9.6,6.7l-65,45.2l0,0 L43,90l25.2,35.3l-26.4,19.5l-2.6,1.9l10,6.3l68.7,43.4l2.1,1.3v0l0,0l0,0v0l2.1-1.3l68.7-43.4l10-6.3L198.2,144.8z M51.8,97.3 L120,49.8l68.2,47.5l-18.8,26.3l-41.7-31.2l-7.7-5.8v0l0,0l0,0l0,0l0,0v0l-7.7,5.8l-41.7,31.2L51.8,97.3z M51.8,151.1l22.8-16.8 l39.9,56.4L51.8,151.1z M120,193.5l-43-60.9l43-32.2l43,32.2L120,193.5z M125.6,190.7l39.9-56.4l22.8,16.8L125.6,190.7z"/></g></svg>