<svg xmlns="http://www.w3.org/2000/svg" xmlns:xlink="http://www.w3.org/1999/xlink" id="mnemonic" x="0" y="0" version="1.1" viewBox="0 0 240 234" xml:space="preserve" style="enable-background:new 0 0 240 234"><style type="text/css">.st0{fill:#b6f200}.st1{fill:#1d2600}.st2{fill:#f2ffc7}</style><g><path d="M197.5,234h-155C19,234,0,215,0,191.5v-149C0,19,19,0,42.5,0h155C221,0,240,19,240,42.5v149 C240,215,221,234,197.5,234z" class="st0"/><path d="M193.7,224H46.3C26.3,224,10,207.7,10,187.7V46.3C10,26.3,26.3,10,46.3,10h147.3c20.1,0,36.3,16.3,36.3,36.3 v141.3C230,207.7,213.7,224,193.7,224z" class="st1"/><g id="_x32_56"><path d="M85.8,163.5c0,1-0.3,1.3-1.1,1.3H69.3c-0.8,0-1.1-0.3-1.1-1.4V59c0-0.7,0.3-1,1.1-1h53.9c1,0,1.1,0.3,1.3,1.1 l1.6,13.4c0.2,1-0.3,1.3-1.4,1.4H86v31.2l34.9-0.1c0.8,0,1.1,0.2,1.1,1.1v12.5c0,1-0.3,1.1-1.1,1.1h-35V163.5z" class="st2"/><path d="M141,102.3c0-1.1,0-4-0.5-9.5c0-0.8,0.2-1,0.8-1.3c6-2.4,19.6-6.8,35.4-6.8c0.8,0,1.1,0.2,1.1,1v14.2 c0,0.8-0.3,1-1.1,1c-6.1-0.3-14.5,0.9-17.8,2.3v61c0,0.8-0.3,1.1-1.1,1.1l-15.6-0.4c-0.8,0-1.1-0.3-1.1-1.1V102.3z" class="st2"/></g></g></svg>