<svg xmlns="http://www.w3.org/2000/svg" xmlns:xlink="http://www.w3.org/1999/xlink" id="mnemonic" x="0" y="0" version="1.1" viewBox="0 0 240 234" xml:space="preserve" style="enable-background:new 0 0 240 234"><style type="text/css">.st0{fill:#3df0f0}.st1{fill:#022326}.st2{fill-rule:evenodd;clip-rule:evenodd;fill:#ccfbff}</style><path d="M197.5,234h-155C19,234,0,215,0,191.5v-149C0,19,19,0,42.5,0h155C221,0,240,19,240,42.5v149	C240,215,221,234,197.5,234z" class="st0"/><path d="M193.7,224H46.3C26.3,224,10,207.7,10,187.6V46.4C10,26.3,26.3,10,46.3,10h147.3c20.1,0,36.3,16.3,36.3,36.3	v141.3C230,207.7,213.7,224,193.7,224z" class="st1"/><path d="M66.5,163.3c-1.2,0-1.5-0.5-1.5-1.5V54.3c0-0.8,0.3-1.3,1.2-1.3H82c0.8,0,1,0.3,1,1.2v92.6h41.2	c0.8,0,1.1,0.3,0.9,1.2l-2.5,14.2c-0.2,0.8-0.7,1.2-1.5,1.2H66.5z M141.5,98.5c0-1.2,0-4.1-0.5-9.7c0-0.8,0.2-1,0.8-1.3	c6.1-2.5,20.6-6.9,36.8-6.9c0.8,0,1.2,0.2,1.2,1V96c0,0.8-0.3,1-1.2,1c-6.3-0.3-15.6,0.5-19.1,2v63.1c0,0.8-0.3,1.2-1.2,1.2h-15.7	c-0.8,0-1.2-0.3-1.2-1.2V98.5z" class="st2"/></svg>